<svg width="123" height="104" viewBox="0 0 123 104" fill="none" xmlns="http://www.w3.org/2000/svg">
<path d="M8 42C8 71.8234 31.9528 96 61.5 96C91.0472 96 115 71.8234 115 42" stroke="white" stroke-width="16"/>
<rect width="15.4825" height="55.6733" rx="7.74124" transform="matrix(0.716009 0.698091 0.698091 -0.716009 53.0352 67.6406)" fill="#FFE696"/>
<path d="M50.8742 16.8101C49.997 12.9269 44.4641 12.9269 43.587 16.8101V16.8101C43.0185 19.3268 40.1304 20.5231 37.9489 19.1455V19.1455C34.5828 17.0199 30.6705 20.9323 32.796 24.2983V24.2983C34.1736 26.4798 32.9774 29.3679 30.4607 29.9364V29.9364C26.5775 30.8135 26.5775 36.3464 30.4607 37.2236V37.2236C32.9774 37.7921 34.1736 40.6801 32.7961 42.8617V42.8617C30.6705 46.2277 34.5828 50.1401 37.9489 48.0145V48.0145C40.1304 46.6369 43.0185 47.8332 43.587 50.3499V50.3499C44.4641 54.233 49.997 54.233 50.8742 50.3499V50.3499C51.4427 47.8332 54.3307 46.6369 56.5122 48.0145V48.0145C59.8783 50.1401 63.7907 46.2277 61.6651 42.8617V42.8617C60.2875 40.6801 61.4838 37.7921 64.0004 37.2236V37.2236C67.8836 36.3464 67.8836 30.8135 64.0004 29.9364V29.9364C61.4838 29.3679 60.2875 26.4798 61.6651 24.2983V24.2983C63.7907 20.9323 59.8783 17.0199 56.5122 19.1455V19.1455C54.3307 20.523 51.4427 19.3268 50.8742 16.8101V16.8101Z" fill="#A6AFFF"/>
<path d="M107 42.0223C107 69.1973 88.3972 88 61.5111 88C34.6249 88 16 69.1749 16 42" stroke="#444444" stroke-width="2" stroke-linecap="round"/>
<path d="M19.4883 88.4141H104.642" stroke="#444444" stroke-width="2" stroke-linecap="round" stroke-linejoin="round"/>
<circle cx="61.5161" cy="88.1294" r="2.87062" transform="rotate(-180 61.5161 88.1294)" fill="white" stroke="#444444" stroke-width="2"/>
<circle cx="15.8716" cy="88.1294" r="2.87062" transform="rotate(-180 15.8716 88.1294)" stroke="#444444" stroke-width="2"/>
<circle cx="107.872" cy="88.1294" r="2.87062" transform="rotate(-180 107.872 88.1294)" stroke="#444444" stroke-width="2"/>
</svg>
