<svg width="105" height="98" viewBox="0 0 105 98" fill="none" xmlns="http://www.w3.org/2000/svg">
<rect x="1" y="10.0156" width="94.3501" height="79.1709" rx="7" fill="white" stroke="#444444" stroke-width="2"/>
<path d="M12.099 18.7842C12.099 19.9076 11.1963 20.8184 10.0827 20.8184C8.96914 20.8184 8.06641 19.9076 8.06641 18.7842C8.06641 17.6607 8.96914 16.75 10.0827 16.75C11.1963 16.75 12.099 17.6607 12.099 18.7842Z" fill="#DDDDDD"/>
<path d="M18.82 18.7842C18.82 19.9076 17.9173 20.8184 16.8037 20.8184C15.6902 20.8184 14.7874 19.9076 14.7874 18.7842C14.7874 17.6607 15.6902 16.75 16.8037 16.75C17.9173 16.75 18.82 17.6607 18.82 18.7842Z" fill="#DDDDDD"/>
<path d="M25.5411 18.7842C25.5411 19.9076 24.6383 20.8184 23.5248 20.8184C22.4112 20.8184 21.5085 19.9076 21.5085 18.7842C21.5085 17.6607 22.4112 16.75 23.5248 16.75C24.6383 16.75 25.5411 17.6607 25.5411 18.7842Z" fill="#DDDDDD"/>
<rect x="51.0781" y="27.5938" width="37.6377" height="20.3419" rx="4" fill="#A7D6FF"/>
<rect x="51.0781" y="52.0078" width="37.6377" height="28.4787" rx="4" fill="#E1E1E1"/>
<rect x="8.89441" y="28.4218" width="34.6375" height="51.233" rx="4.14" stroke="#DDDDDD" stroke-width="1.656" stroke-dasharray="1.66 3.31"/>
<rect x="8.06641" y="27.5938" width="37.6377" height="52.889" rx="4" fill="#A7D6FF"/>
<path d="M91.5703 85.9297L99.4785 93.6733" stroke="#444444" stroke-width="2" stroke-linecap="round"/>
<path d="M88.6186 90.8588L82.6067 78.2419C82.2744 77.5445 82.9834 76.8075 83.6843 77.1218L96.3641 82.8078C96.888 83.0427 97.0202 83.7321 96.621 84.147L89.9532 91.0779C89.5539 91.4929 88.8671 91.3801 88.6186 90.8588Z" fill="white" stroke="#444444" stroke-width="2"/>
<ellipse cx="87.6608" cy="16.0338" rx="15.9381" ry="16.0338" fill="#444444"/>
<g clip-path="url(#clip0_135_21861)">
<path d="M80.5565 20.4231L83.5186 17.4524C83.8583 17.1117 83.6248 16.5368 83.147 16.5368L81.2466 16.5368C81.2466 13.0125 84.1025 10.1483 87.6167 10.1483C88.4554 10.1483 89.2729 10.308 90.0054 10.6168C90.3877 10.7765 90.8229 10.6594 91.1096 10.3719C91.651 9.82888 91.4599 8.91321 90.7486 8.62573C89.7825 8.23177 88.7208 8.01882 87.6167 8.01882C82.9241 8.01883 79.1233 11.8306 79.1233 16.5368L77.2228 16.5368C76.7451 16.5368 76.5115 17.1117 76.8513 17.4418L79.8133 20.4124C80.0151 20.6254 80.3548 20.6254 80.5565 20.4231V20.4231ZM93.9867 16.5368C93.9867 20.0611 91.1308 22.9252 87.6167 22.9252C86.7779 22.9252 85.9605 22.7655 85.2279 22.4567C84.8457 22.297 84.4104 22.4141 84.1238 22.7016C83.5823 23.2446 83.7734 24.1603 84.4847 24.4478C85.4509 24.8417 86.5125 25.0547 87.6167 25.0547C92.3093 25.0547 96.1101 21.2429 96.1101 16.5368L98.0105 16.5368C98.4883 16.5368 98.7218 15.9618 98.3821 15.6317L95.42 12.6611C95.2077 12.4481 94.8785 12.4481 94.6662 12.6611L91.7041 15.6317C91.375 15.9618 91.6086 16.5368 92.0863 16.5368L93.9867 16.5368V16.5368Z" fill="white"/>
</g>
<defs>
<clipPath id="clip0_135_21861">
<rect width="32.2609" height="32.5471" fill="white" transform="translate(71.7402 0.0625)"/>
</clipPath>
</defs>
</svg>
