<svg xmlns="http://www.w3.org/2000/svg" width="45" height="45" viewBox="0 0 45 45">
    <g fill="none" transform="translate(-1740.477 -55)">
        <circle cx="22.5" cy="22.5" r="22.5" transform="translate(1740.477 55)"/>
        <g fill="none">
            <path d="M6.4 21.144l-4.779-4.8a8.655 8.655 0 0 1-11.853-.6 9.283 9.283 0 0 1 0-12.859 8.659 8.659 0 0 1 12.5 0 9.292 9.292 0 0 1 .878 11.808l4.845 4.87A1.121 1.121 0 0 1 6.4 21.144z" transform="translate(1765.165 66)"/>
            <path fill="#000" d="M-3.986 16.402c1.57 0 3.102-.564 4.313-1.59L1 14.244l.513-.718c.969-1.356 1.438-3.036 1.32-4.73-.119-1.708-.83-3.314-2.005-4.522C-.462 2.947-2.17 2.216-3.986 2.216c-1.815 0-3.524.731-4.813 2.058-2.698 2.776-2.698 7.294 0 10.071 1.288 1.327 2.998 2.057 4.813 2.057m11.177 5.07c-.286 0-.573-.11-.792-.328l-4.78-4.805c-1.624 1.375-3.615 2.063-5.605 2.063-2.261 0-4.523-.887-6.248-2.663-3.45-3.551-3.45-9.308 0-12.859C-8.509 1.104-6.247.216-3.986.216s4.522.888 6.248 2.664c3.128 3.219 3.42 8.25.877 11.808l4.845 4.87c.437.438.437 1.148 0 1.586-.219.218-.506.328-.793.328z" transform="translate(1765.165 66)"/>
        </g>
    </g>
</svg>