<svg xmlns="http://www.w3.org/2000/svg" width="66" height="32" viewBox="0 0 66 32">
    <defs>
        <style>
            .cls-2{fill:#fff}
        </style>
    </defs>
    <g id="Logo" opacity="0.5" transform="translate(-883.461 -112.881)">
        <path id="Type" d="M43.285 12.267C43.285 5.683 47.446 0 54.715 0a12.567 12.567 0 0 1 3.811.536 8.947 8.947 0 0 0 2.1.539c.383 0 .56-.37.595-.874h1.224V6.62h-1.227A5.973 5.973 0 0 0 55 .977c-6.362 0-7.382 6.954-7.382 11.728 0 5.039 1.054 11.154 6.961 11.324 2.479.064 4.928-1.348 4.86-4.673V16.75a1.766 1.766 0 0 0-1.843-1.863h-3.02v-.974H66v.974h-1.472c-1.121 0-1.384.661-1.384 2.344V24.8h-.985c-.1-.4-.277-.809-1.115-.809-1.156 0-2.763 1.009-6.5 1.009-8.393 0-11.259-5.512-11.259-12.733zM36 22.843A2.143 2.143 0 1 1 38.143 25 2.236 2.236 0 0 1 36 22.843zM22.714 25v-1H24.8c1.213 0 1.377-.692 1.377-2.078v-9.44c0-2.906-.272-3.6-1.206-3.6H23.33v-1h3.785a5.7 5.7 0 0 0 2.366-.552v4.045h.067c1.005-2.04 2.571-4.045 5.072-4.045 1.6 0 3.094.936 3.094 2.661a2.087 2.087 0 0 1-2.258 2.281c-.976 0-1.985-.447-1.985-1.453a5.877 5.877 0 0 1 .144-.933c0-.245-.452-.274-.7-.274-2.121 0-3.265 2.315-3.265 8.574v3.734c0 1.557.331 2.078 1.375 2.078h1.965v1zM0 25v-1.018h1.724c1.22 0 1.391-.355 1.391-3.826V4.285c0-2.384-.14-3.263-1.287-3.263H0V0h10.114c8.077 0 12.6 4.707 12.6 12.742 0 8.747-6.405 12.258-12.25 12.258zm7.018-1.018h3.023c6.686 0 8.357-5.827 8.357-11.413 0-5.933-1.743-11.547-8.564-11.547H7.018z" class="cls-2" transform="translate(883.461 112.881)"/>
        <path id="Underline" d="M0 0H48V2H0z" class="cls-2" transform="translate(891.461 142.881)"/>
    </g>
</svg>