<svg width="25" height="37" viewBox="0 0 25 37" fill="none" xmlns="http://www.w3.org/2000/svg">
<path d="M23.125 11.7727C23.125 14.5106 21.3199 17.0427 19.0615 19.8451C18.9094 20.0339 18.755 20.2243 18.5997 20.4159C17.6654 21.5683 16.6936 22.767 15.936 23.9482C15.3267 24.8981 14.7868 25.9374 14.5106 27.0492H10.1561C9.87987 25.9374 9.33999 24.8981 8.73071 23.9482C7.97307 22.767 7.00125 21.5683 6.06699 20.4159C5.91162 20.2243 5.75729 20.0339 5.60516 19.8451C3.34682 17.0427 1.54167 14.5106 1.54167 11.7727C1.54167 6.19915 6.31545 1.54167 12.3333 1.54167C18.3512 1.54167 23.125 6.19915 23.125 11.7727ZM10.3512 33.6364V33.4962H14.3155V33.6364C14.3155 34.5681 13.4884 35.4583 12.3333 35.4583C11.1783 35.4583 10.3512 34.5681 10.3512 33.6364Z" fill="white" stroke="#444444" stroke-width="3.08333"/>
<rect x="11.5618" y="8.48177" width="1.54167" height="7.70833" rx="0.770833" fill="#444444" stroke="#444444" stroke-width="1.54167"/>
</svg>
