<svg width="109" height="80" viewBox="0 0 109 80" fill="none" xmlns="http://www.w3.org/2000/svg">
<rect x="1" y="1" width="90" height="78" rx="7" fill="white" stroke="#444444" stroke-width="2"/>
<rect x="7" y="16" width="78" height="57" rx="2.6352" fill="#FFEDAC"/>
<path d="M11.3002 8.9764C11.3002 10.0679 10.4202 10.9528 9.33467 10.9528C8.24914 10.9528 7.36914 10.0679 7.36914 8.9764C7.36914 7.88487 8.24914 7 9.33467 7C10.4202 7 11.3002 7.88487 11.3002 8.9764Z" fill="#DDDDDD"/>
<path d="M17.852 8.9764C17.852 10.0679 16.972 10.9528 15.8864 10.9528C14.8009 10.9528 13.9209 10.0679 13.9209 8.9764C13.9209 7.88487 14.8009 7 15.8864 7C16.972 7 17.852 7.88487 17.852 8.9764Z" fill="#DDDDDD"/>
<path d="M24.4037 8.9764C24.4037 10.0679 23.5237 10.9528 22.4382 10.9528C21.3526 10.9528 20.4727 10.0679 20.4727 8.9764C20.4727 7.88487 21.3526 7 22.4382 7C23.5237 7 24.4037 7.88487 24.4037 8.9764Z" fill="#DDDDDD"/>
<path d="M99.9845 24.5391C99.9845 31.7216 94.1802 37.5391 87.0264 37.5391C79.8727 37.5391 74.0684 31.7216 74.0684 24.5391C74.0684 17.3565 79.8727 11.5391 87.0264 11.5391C94.1802 11.5391 99.9845 17.3565 99.9845 24.5391Z" fill="white" fill-opacity="0.9" stroke="#444444" stroke-width="2"/>
<path d="M97.0312 33.2578L107.998 42.2578" stroke="#444444" stroke-width="2" stroke-linecap="round" stroke-linejoin="round"/>
<ellipse rx="2.43708" ry="3.8707" transform="matrix(0.999983 0.00575365 -0.00571926 0.999984 39.37 37.0878)" fill="#444444"/>
<ellipse rx="2.43708" ry="3.8707" transform="matrix(0.999983 0.00575365 -0.00571926 0.999984 54.8485 36.8222)" fill="#444444"/>
<path d="M39.1309 48.9141C39.1309 48.9141 41.8922 52.4055 47.1141 52.4543C52.4037 52.5037 55.3235 49.0072 55.3235 49.0072" stroke="#444444" stroke-width="2" stroke-linecap="round"/>
</svg>
