<svg width="99" height="93" viewBox="0 0 99 93" fill="none" xmlns="http://www.w3.org/2000/svg">
<path d="M25.5273 15H41.5273V4C41.5273 2.34315 40.1842 1 38.5273 1H28.5273C26.8705 1 25.5273 2.34315 25.5273 4V15Z" fill="white" stroke="#444444" stroke-width="2"/>
<path d="M21.6543 27H45.6543V17C45.6543 15.3431 44.3112 14 42.6543 14H24.6543C22.9974 14 21.6543 15.3431 21.6543 17V27Z" fill="white" stroke="#444444" stroke-width="2"/>
<path d="M23.1707 20H43.9564C47.226 20 50.06 22.2633 50.7831 25.4518L63.9364 83.4519C64.9296 87.8314 61.6004 92 57.1097 92H10.0174C5.52669 92 2.19755 87.8313 3.19073 83.4518L16.344 25.4518C17.0671 22.2633 19.9012 20 23.1707 20Z" fill="white" stroke="#444444" stroke-width="2"/>
<path d="M16.6875 43.1323C17.1777 40.7275 19.2928 39 21.7471 39H44.8532C47.2851 39 49.3874 40.6969 49.9005 43.0741L58.0325 80.7469C58.7268 83.9633 56.2757 87 52.9852 87H14.0684C10.8021 87 8.35645 84.0055 9.00878 80.8051L16.6875 43.1323Z" fill="#7FCFC2"/>
<path d="M30.6775 55.9522C31.5005 53.0423 35.6252 53.0423 36.4481 55.9522V55.9522C36.89 57.5147 38.4956 58.4415 40.0696 58.043V58.043C43.0009 57.3009 45.0592 60.8769 42.9531 63.0465V63.0465C41.8221 64.2116 41.8221 66.0681 42.9531 67.2332V67.2332C45.0592 69.4028 43.0009 72.9788 40.0696 72.2367V72.2367C38.4956 71.8382 36.89 72.765 36.4481 74.3274V74.3274C35.6252 77.2374 31.5005 77.2374 30.6775 74.3274V74.3274C30.2356 72.765 28.6301 71.8382 27.056 72.2367V72.2367C24.1247 72.9788 22.0664 69.4028 24.1725 67.2332V67.2332C25.3035 66.0681 25.3035 64.2116 24.1725 63.0465V63.0465C22.0664 60.8769 24.1247 57.3009 27.056 58.043V58.043C28.6301 58.4415 30.2356 57.5147 30.6775 55.9522V55.9522Z" fill="white"/>
<path fill-rule="evenodd" clip-rule="evenodd" d="M33.5642 11C34.9901 11 36.146 9.65685 36.146 8C36.146 6.34315 34.9901 5 33.5642 5C32.1383 5 30.9824 6.34315 30.9824 8C30.9824 9.65685 32.1383 11 33.5642 11ZM33.5 9C33.7761 9 34 8.55228 34 8C34 7.44772 33.7761 7 33.5 7C33.2239 7 33 7.44772 33 8C33 8.55228 33.2239 9 33.5 9Z" fill="#444444"/>
<path d="M73 80H90V89C90 90.6569 88.6569 92 87 92H76C74.3431 92 73 90.6569 73 89V80Z" fill="white" stroke="#444444" stroke-width="2"/>
<path d="M65 21H97C97.5523 21 98 21.4477 98 22V27H64V22C64 21.4477 64.4477 21 65 21Z" fill="white" stroke="#444444" stroke-width="2"/>
<path d="M98 26V27.4145L90.1384 80H72.8459L64 27.4054V26H98Z" fill="white" stroke="#444444" stroke-width="2"/>
<ellipse cx="81.3275" cy="52.2684" rx="7.74544" ry="12.9091" fill="white"/>
</svg>
