<svg xmlns="http://www.w3.org/2000/svg" width="102.391" height="49.638" viewBox="0 0 102.391 49.638">
    <defs>
        <style>
            .cls-1{fill:#4f342a}
        </style>
    </defs>
    <g id="그룹_138" transform="translate(0 .001)">
        <g id="그룹_143">
            <path id="패스_143" d="M0 1.3h15.655c12.5 0 19.5 7.223 19.5 19.554 0 13.422-9.914 18.809-18.961 18.809H0v-1.557h2.668c1.886 0 2.153-.544 2.153-5.87V7.881c0-3.66-.216-5.008-1.991-5.008H0zm10.864 36.8h4.678c10.349 0 12.936-8.942 12.936-17.513 0-9.1-2.7-17.72-13.255-17.72h-4.36z" class="cls-1" transform="translate(0 -.445)"/>
            <path id="패스_144" d="M53.609 43.71h3.242c1.881 0 2.136-1.077 2.136-3.237V25.77c0-4.526-.422-5.6-1.871-5.6h-2.553V18.6h5.87a8.794 8.794 0 0 0 3.668-.86v6.3h.1c1.559-3.178 3.987-6.3 7.864-6.3 2.485 0 4.8 1.459 4.8 4.145a3.243 3.243 0 0 1-3.5 3.553c-1.511 0-3.076-.7-3.076-2.262a9.179 9.179 0 0 1 .223-1.454c0-.38-.7-.426-1.08-.426-3.29 0-5.064 3.607-5.064 13.357v5.816c0 2.426.513 3.237 2.132 3.237h3.04v1.562H53.609z" class="cls-1" transform="translate(-18.273 -6.048)"/>
            <path id="패스_145" d="M88.4 50.189a3.341 3.341 0 1 1-3.341 3.338 3.473 3.473 0 0 1 3.341-3.338" class="cls-1" transform="translate(-28.994 -17.107)"/>
            <path id="패스_146" d="M131.754 10.614h-1.886c-.428-5.276-4.2-9.049-9.589-9.049-9.8 0-11.375 11.151-11.375 18.8 0 8.079 1.623 17.883 10.728 18.156 3.82.1 7.595-2.163 7.49-7.492v-4.174a2.777 2.777 0 0 0-2.842-2.988h-4.648v-1.56h17.605v1.561h-2.269c-1.727 0-2.132 1.062-2.132 3.758v12.138h-1.519c-.158-.648-.426-1.3-1.719-1.3-1.782 0-4.256 1.618-10.016 1.618-12.933 0-17.35-8.838-17.35-20.416C102.232 9.111 108.644 0 119.844 0a18.694 18.694 0 0 1 5.873.861 13.382 13.382 0 0 0 3.234.865c.591 0 .861-.595.916-1.4h1.886z" class="cls-1" transform="translate(-34.846)"/>
            <path id="사각형_205" d="M0 0H73.523V2.426H0z" class="cls-1" transform="translate(14.47 47.211)"/>
        </g>
    </g>
</svg>
